<mxfile host="Electron" modified="2023-11-08T09:21:53.977Z" agent="Mozilla/5.0 (X11; Linux x86_64) AppleWebKit/537.36 (KHTML, like Gecko) draw.io/21.2.8 Chrome/112.0.5615.165 Electron/24.2.0 Safari/537.36" etag="7XSFtf3Zph_olFTGhPuM" version="21.2.8" type="device">
  <diagram name="Page-1" id="nu51oUbGgl0qUSdWS8pK">
    <mxGraphModel dx="1434" dy="816" grid="1" gridSize="10" guides="1" tooltips="1" connect="1" arrows="1" fold="1" page="1" pageScale="1" pageWidth="850" pageHeight="1100" math="0" shadow="0">
      <root>
        <mxCell id="0" />
        <mxCell id="1" parent="0" />
        <mxCell id="ADgUbHOw4i6oFv4jQCSO-1" value="Airflow" style="shape=image;verticalLabelPosition=bottom;labelBackgroundColor=default;verticalAlign=top;aspect=fixed;imageAspect=0;image=data:image/png,iVBORw0KGgoAAAANSUhEUgAAAfQAAAFACAYAAABKjY7pAAAACXBIWXMAAAsTAAALEwEAmpwYAAAgAElEQVR4nO3dd3wc5Z0/8M/MbNOuVr3LkmW5F7ABGyeAcRKO44AUCKQBKYQWQwglJpSEIzkuuTRqLpCEJJSEVEp+R0sCIQRjYxuDcZNt9d6lXWm12jozvz8MBtsqq9WU3dnP+y+knX3ma16SPjszz/N9BFVVVRAREVFaE80ugIiIiGaPgU5ERGQBDHQiIiILYKATERFZAAOdiIjIAhjoREREFsBAJyIisgAGOhERkQUw0ImIiCyAgU5ERGQBDHQiIiILYKATERFZAAOdiIjIAhjoREREFsBAJyIisgAGOhERkQUw0ImIiCyAgU5ERGQBDHQiIiILYKATERFZAAOdiIjIAhjoREREFsBAJyIisgAGOhERkQUw0ImIiCyAgU5ERGQBDHQiIiILYKATERFZAAOdiIjIAhjoREREFsBAJyIisgAGOhERkQUw0ImIiCyAgU5ERGQBDHQiIiILYKATERFZAAOdiIjIAhjoREREFsBAJyIisgAGOhERkQUw0ImIiCyAgU5ERGQBDHQiIiILYKATERFZAAOdiIjIAhjoREREFsBAJyIisgAGOhERkQUw0ImIiCyAgU5ERGQBDHQiIiILYKATERFZAAOdiIjIAhjoREREFsBAJyLSQN3IOPb4g2aXQRmMgU5ENEutwTAeaOhGTFXNLoUyGAOdiGgW+sJR3HegC2FZMbsUynAMdCKiJPmjcdx7oAuBuGx2KUQMdCKiZIRkBfcd7MJAJGZ2KUQAGOhERDMWVVT85GAXOsYjZpdCdBgDnYhoBhQVeKixB/WBkNmlEB2BgU5ElCAVwGMtfdjpGzO7FKJjMNCJiBL0l45BvDYwYnYZRBNioBMRJeClXh+e6x42uwyiSTHQiYimsW0ogD+0DZhdBtGUGOhERFPYNxLEw029ZpdBNC0GOhHRJFrGwnigvhtxtnSlNMBAJyKaQG84ivsPdiGiMMwpPdjMLoDS1+Cvf4loS5PZZZii3+VCAEJCxzo8Hoh2O1x5eXDm5sFTXAJvRQU8ZeWQ7HadK6Vk+KJx3LO/ky1dKa0w0Clp+Z+8AO3XfAWhvbvNLsVwLq8XddEYhv2+pMcQJAl51XORv2AhSlYch5LjVqL8xBNhd3s0rJRmajwu474DXRiKxs0uhWhGBFXlwyFKnhIOo/OGazG25TWzSzGcmF+AbX4/AuPa7YEtSBJKVhyHmg99BAvOPhf5tfM1G5umF1VU3H2gE41JdoG7elEFTszP1rgqosQw0GnW1FgM3bffipEXnjO7FMOJJaXY1N2FSEyfDTry59ViwTkfxdILPoWcOVW6nIMOUVTgp/Vd2OVP/gMaA53MxEAnbagqen/4Pxj+3W/MrsRwQlUVXqmvh65PWwUBNes/jOMu+QLmrlsPCIk9v6fEqAAeae7F5oHRWY3DQCczMdBJU4O/eBD9P73f7DIMJ8+rxat1+2DEL1PR0mU4+drrUXvGmQx2jTzRPoi/9sy+CxwDnczEZWukqaIrN6DijjsBMbN+tKSWZqxdvsKQcw3ur8PzV1+JP13wCfTtetuQc1rZi70+TcKcyGyZ9VeXDJH3yQsx58f3QnA4zC7FUO7mJixfsNCw8/Xv3Y0/f/p8vPzNWxAd4+5fydgyOIo/sqUrWQQDnXSRc8aZqH7wIYiezLr9WNbbg6rKSuNOqKqo+/Mf8Ltzz0T/lk3GndcC9viDeLS5z+wyiDTDQCfdeFafjJqHfwNbQaHZpRhGlWUsikSR6/Uaet6xnh5s++//xNCfHjH0vOmqeSyMnzV0Q+YUIrIQBjrpyrV4CWoe/R0cVdVml2IYNTiG1UVFsBk8j6CtsQWdf30OPd+/DapOy+isoCcUxU/Y0pUsiIFOunNUV6PmkcfhWrzE7FIMo/b24pQlSw0/79atOxHYvhlt130Bcd+Q4edPdb5oHPccYEtXsiYGOhnCVlSEml8/BvdJq80uxTC2lmacYHCox+JxtCELob070XrFhQg31Bl6/lQ2Fpdxz4FODLOlK1kUA50MI2Z7MffBX8L7kTPMLsUw+R3tqDZykhyAg3sPQJi7ALH+HrRefRFG//mCoedPRVFFxU8OdqE7FDW7FCLdMNDJUILTiaq77kPe+ReYXYoxFAWL4nG4nU5DT7uncwgQJaiRMLruuAEDv7ofyNAJYLKq4sGGbjSNhc0uhUhXDHQyniih4o47UXT5VWZXYghldBRra+YluNmqNvq6eiDXvjdnYfDRB9D5rWuhhMYNrMJ8KoBHm/uwZxb92YnSBQOdzCEIKLn2epTddKvZlRhCaG/DScuWG3rO3fWtgCgd/jqw6SW0bvgsYr1dhtZhpj+3D2DL4Oz6sxOlCwY6margki+g8ns/hGCzmV2K7nLaWjGnosKw8w33Dx1xlQ4AkeZ6tFxxIcZ3vWFYHWb5W48Pf+9Jfr96onTDQCfT5Z77MVTd/wAEp8vsUvSlKFiiAk4DP7zsqW875nvyiA/tN1wK3//90bA6jLZ5YBR/bmdLV8osDHRKCdmnrkPNLx+BlJdndim6Uvw+fMDA9fhD/YMQ5i065vtqPI7eH9+B3nvuhCpba032bn8Qj7b0ml0GkeEY6JQyso5fiZqHfwtbSanZpehKam7CkvkLDDtf28jks7t9Tz+O9hu/DHl0xLB69NQUCOHnDd1gEzjKRAx0SinO2vmY99s/wDmv1uxSdFXp9yHb7TbkXI119ZCKJv+QNL5zG1quvBCRlkZD6tFLdyiK++u72dKVMhYDnVKOvbQMNY/8Flkrjje7FN2o4+NYU1VtyFI2FcBoTtGUx8S6O9C64TMY2/xPAyrS3vA7LV2DbOlKGYyBTilJysvH3F89iuxTTjO7FN0I7W1YYdDz9AP7m6Y9RhkPouO2qzH0+C/SqglNICbj7v2d8LGlK2U4BjqlLNHlQtX9DyD37HPNLkU3pQP9htx69/v8EKrmTX+gqqL/53ej686NUCOp31ktqqi4v74LvWG2dCVioFNKE+x2VP7Pj1Bw0efNLkUXSiiENQbNF/CJiS8LHH3pObReewniA306VjQ7cVXFT+u70cKWrkQAGOiUDgQBZTffhpJrvmZ2JboQmpuwuHa+7udpPDj9bff3Cx/Yi5YrLkCobpdOFSVPBfBIcx/2jbClK9G7GOiUNoqu3ICKO+4EROv92FYFx+ByOHQ9x4h/FGJF9YzeEx8eRNu1n8fI3/6fTlUl509tA9jKlq5ER7DeX0aytLxPXog5P74Xgs7hZzRldBRrDJggF3TnzPg9aiyK7u/ejP4Hfggo5s8if757GC/2sqUr0dEY6JR2cs44E9UPPgTRk212KZqyNzagrLhE13N09Q4m/d6hP/waHbdcDSUY0LCimXltYARPdST/byCyMgY6pSXP6pNR8/BvYCsoNLsUTa3IydF1bXpHcxsEe/J3N8a2/gstV30G0c5je8Tr7W3fGB5tTt1JekRmY6BT2nItXoKaR38HR9XMngunMqW7C8sXLdZvfEUFZvgc/WjR9ma0XvkpBHds0aiq6TUEQvhFYw/SZ3U8kfEY6JTWHNXVqHnkcbgM3PBEb6XDw3Da7bqNP26f/a528tgo2jdejuEnHtOgoql1jkdw/8EuRNnSlWhKDHRKe7aiItT8+jG4T1ptdimaUINjWL1suW7jD/o0egauKOi7/3vo+cG3oMZi2ox5lMFIDPce7EJIVnQZn8hKGOhkCWK2F3Mf/CW8HznD7FI04WxsRL5OW8l2tXZoOp7/uSfQdv0XEfcNaTpuICbjngNd8LOlK1FCGOhkGYLTiaq77kPe+ReYXcrsKTJWVs7RZehgcBxiXoGmY4b2vIXWKy9EuGGfJuNFZAX3HexCH1u6EiWMgU7WIkqouONOFF1+ldmVzJrY3ISK0jJdxlbztV8dEOvrQds1F2P0n3+d1ThxVcVPG7rRGmRLV6KZYKCT9QgCSq69HmU33Wp2JbO2NDdXl3GjttlPjJuIEg6j647rMfDrnyS1Y5sK4FdNvagbGde+OCKLY6CTZRVc8gVUfu+HEGw2s0tJmtrRjvlzazQfd0zn59KDj/wUnbd/DUo4NKP3/aGtH28Mmde4hiidMdDJ0nLP/Riq7n8AglOfK9LJtJ76Cfztv57Czs/djO6V6xF3Jb9Fao0oaN5sZmRkTOMRjxV49UW0bvgsYr2dCR3/bNcQ/tHr17kqIusSVDWJ+2JEaSa0exfar/0KZL/+gTG4YBVe3/BjqKJ0+HtiPIrSum2o3PkyyvZugRif2WSvzvIK1DfPbLe0qRQUFeAEmzG3taW8Asy58z64V66Z9JhN/SN4tCX9u8BdvagCJ+ZbqyUxpQ8GOmWMSHMT2q66DPF+/YJjvKAMr974c0Q9k2+CYh8PoGrH3zH39Wfg7U2shapQVoaXW1o065QmCcCHSo27ayHYbCi7/j+R9/FPH/PaW74xPFjfbYkucAx0MhMDnTJKrK8X7VddhkhLs+Zjx51ZeO26/8VoeW3C7yk+uAMLX/49iurfmvbYttJSNLW2zqLCI/3b/GKoBm+0kv/Ji1F67W0QpEN3L+oDIdxzoBMxi3SBY6CTmfgMnTKKvbQMNY/8Flkrjtd2YEHAzotvnVGYA8DA4tXYsuEubLr+AQwuOnHKY+dJ2k7uE0zYrc731OPo+PplkEdH0DkewU8OdlkmzInMxkCnjCPl5WPurx5F9imnaTbmwbO+hJ7j1iX9ft/cpdiy4S5s2XAXAuXzJjxG6e5CjZYb0biytBtrBoJvbUXjFRfikVe2sKUrkYYY6JSRRJcLVfc/gNyzz531WN0r1+PgWV/QoCpgcNGJeGXjL7HvvKsnnBk/P0u7596KBpu0JH3ung587J4bUbv/DdNqILIaBjplLMFuR+X//AgFF30+6TFGKhdg50XaNrBRRRFN6z+Ff37jYQwuOOHI1zo6UKlR9zhZ0HPn9ek5IiGc9/B/4+R/PmFqHURWwUCnzCYIKLv5NpRc87UZvzWSnYftl30XssOpQ2FAKL8EW665G/s+sQHK+56fLyot1WR8RTD/119QVax7/jGc87u7YIuxbzvRbJj/G02UAoqu3ICKO+4ExMR+JRTJhh2Xfgeh/BKdKwOaPvRpbLnmHoRzDvVfFxobkOv1znpcRfN2NclbuvNf+MyDtyJ7dNjsUojSFgOd6B15n7wQc358LwSHY9pj91xwHYZqNZ4pP4XheSvw6o0/w0jlAkBVsWL+glmPKSupNSGtrKMBl9x7A8o66s0uJSm5NgmRkD77whMlgoFO9D45Z5yJ6gcfgjjFkq6W085D2wc/amBVh4Rzi7D52vsxuPAEuNrbIJn8DFwPnoAPn33gVix96xWzS5mRPEnCc280J7UhDZFWGOhER/GsPhk1D/8GtoJjtxgdXHAC9p7/VROqOiTuzMLWK7+PnvknYPmSpbMaK1WjR4rHcM7v78bpzz0CIcXuIkwkTxTx9LZGhGOy2aVQhmOgE03AtXgJah79HRzvW/c9XliOHZd+54ge7WZQbA7s+NJ3gPKFsxonnuJrwNe88hTOf/i/4Qin7laqXgV4alsTZDbHoRTAQCeahKO6GjWPPA7X4iWIO7Ow7bLvIuqe/WQ0LSiSDdvOvxH5q05Negy7lPq//vMO7MDFP9mI/MFus0s5hiMSx9M7mqHwNjuliNT/jSYyka2oCHN/9Rh2ffVHk3ZwM4tsd6Lvi9+GWqDNuvRUVdDfiYvu34i5DbvMLgUAIApAdCSE53e1m10K0REY6ETT2DwgoGvOcrPLmFA0y4vwhh8C9uln5qczV2gMK7b/3ewy4JREdHb48OrBHrNLIToGA51oCgf6w9jSOmZ2GVOSqxYh8ukbZvw+W5rNkm9ZstrU8+fYJOzY1426bp+pdRBNhoFONIm+QAzP1o2YXUZCYuvOR3zV+hm9R0JqT4o7giCgZcnUu9HpKU8U8cKOFvSNpu4EPSIGOtEEglEFT+7xI55Gs5cjF90M1ZOb8PGSmj6B3lWzFCFPjinndsVkPLmtEaFo3JTzEyWKgU50FFlR8fReP0bD6bWuWM0pQPT8axI+XoynT1ezgytPAwxuVesQBYwOBPDszraE+8XYE2wdTKQH/vQRHeXv9aPo9KfnRiGxUz8GeV6CE/jSZDMUVRDeCXTj5Ngk7D7Yh+0tAzN6X5aNf1LJPPzpI3qfNzvHsas7ZHYZyRMERD+ZYCe7cHr8O1sXn4jx7DzDzpcLAc9sb0anb+aTIW1psLafrIs/fUTvaPNF8VLDqNllzJq88ATIyz8w7XFqMGBANbO3e+1ZhpzHJgiIjoTw5PYmxOLJPW7Jc9g1rooocQx0IgD+kIyn9/gts7dG9JwvT/m63SZBjYQNqiZ5YzkFaF6m/3K1HEnEvvq+Wa8vz3Ux0Mk8DHTKeFFZxRO7fQjH02fW93Tk+cdDnj/59q55hfkGVpO8t0/9KBTRpus5vIqK/7etCR1J3GI/YhyHDU7ecicT8aePMpqqAv+3z4/BoPWWJMU+/OlJX8vNT/1AjzldePuD/6Hb+B5JRH+PH0/vaNFkc5VKb5bRE/GJjqDvR1+iFPdqSwCNgxGzy9BF/IQPQc3OgzDmP+Y1b7YbOPbbKWXnKecikjX5vvSzkScIeP7NNoxHtVu6V+l1aTYWUTJ4hU4Za39fGK+3Bs0uQz+SDfETPzLhS+4Uf9YbcbmxY/15mo/rEkUEh4J4YluTpmEOAPML9PnwQZQoBjplpN5ADM/tT4+2rrMRX3PmhN93pHiXuB3rz0doBl3vEpELAS/vbMXrTX2ajvuuhQXZvONOpuItd8o4waiCp9KsrWuy5AWroOYWQRgZPOL7tvFAynZyH80rxpvrP6HZeNk2EW2dfrzUPjj9wbOwotic1rRE7+IVOmUUWVHx1B5f2rV1TZogIH78uiO/BUAd6jenngT88xNXIGaf/fNoAYBXAV7Y3oKdOod5lk3CgnzecidzMdApo/zt4Ci6RtKnh7kW5KVrjvg6O9sDNZqaEwEbl69F44rpm+JMJ1+S0NA8gKd3NCOSZJOYmVhZmgubxBvuZC7ecqeMsaNjHLt70qPdqZbkRScCggi889y8uKIMGO0yuapjhTw5ePHCxDeXmUiWJMI3GMCfG/R5Tj6ZU6oKDT0f0UR4hU4ZoXU4in80pn9b12So2XlQKucf/rqgQNvJZlr5+4VfTbpnuygAXlnFizta8JrBYQ4Ap1cXcUIcmY5X6GR5vpCMv+y1TlvXZMg1SyF2NgAAvJLJxUxgx/rzkr7Vni+K2LS/G70j4xpXlZjybBeOL03ND0mUWRjoZGmRuPXauiZDmbPo8H/bAr6UmuHevuB4bDrnizN+X75Nws6mfrzUZ+7yw7MXlPHqnFICA50sS1WBZ+r8GLJgW9eZUqoOBbokClAGek2u5j3DJXPwf1+4FYqY+G2DHElEW7cfL7XpO3M9UWfNL2WgU0pgoJNl/avZum1dZ0qpqAUAVFRXAuHUCMKx3EI8ccV/IZLlSej4PJuE3oEA/tHYBzVFnp/My3NjTUXq98WnzMBAJ0uq6wtja5uF27rOkJqVDdXtRWlpMZACV7ZjuYX441e+h0Be0bTH5tokdPaO4B/N/UiNGH/PxcdVc2YxpQwGOllObyCG5zOgretMqQVlyBHNj0R/YRmevPw78BeVT3lcnk1CS5cvZW6tH81lk3Dh0kqzyyA6jIFOlhKMKnhyd2a0dZ0ppaAU0lCDqRPi+itr8fSlt2Msd/J12wWShIOdQ3ipY9jAymbuouVzkOtM7U1uKLMw0MkyZEXFk7t9CEQypK3rDLlLK6Ds2WHa+euPPxV//ez1iNmdx7xmEwRkA9ha34tOX+o/KnFKIq46qZaT4SilMNDJMv56cBTdo5nV1nUmcuZUAXuMP68iSXj13Evx5mkfA4QjI9ArSQiPhfHKwR6EoumzGuHi46pR4jn2gwmRmRjoZAlvdASxR4e2rqIAuG0i7AIgQoEaVxCPy4jHZCiygkgkDllWED9qnbskCbDZREg2CXa7BLvdBskmQpBEQBQgQ0BMBUJx1bCGN7LTbcyJ3megYh7++pnr0P/OLHsAkAQBeYKAus5h/KNzOOUmuk2nIMuBr508n1fnlHIY6JT2WoejeLkxMKsxHJIAjw1ALI7xQBhDQ+Po7Q9gZDQMPRNHEACv14WiAjdyc7PgzXHBkWWHIkkIyUBUnt3JVVXF2EAfYqEgCkbHNKp6enG7A9s+8ils//CFUKRDa8zzbRJGR0PYVN+H8Wj63knZ+MGFyOOzc0pBgpoqCzqJkuAbl/HojqEZd4LzOkTY4jH4h4Jo7/Sjv9+4sJuJnBwXystzUFKcDadTQmgsiHAC/c4VOY6DLz+Phn/9DeHAezP+50gxXOAaxckOnTapEQQcWLUOm87+AkbzS5Bjk6CEY9jW1I8ek1qzaum0qkI8dt4aLlWjlMRAp7QViat4bMcQhsanf/bqkARkCwp8AwEcbBhAIJC+DWccdhFzxACKPAIchXmIlFdDsTsOvy7Hotj08x+jv6Fu0jE+7grgM1kaLu0TBDSs+AC2nvEZhOcuhBKOY2f7ANoGU/ODUjLWzi3A3R85HpXZs9+rnUgPDHRKS6oKPLHbh6ahyYPZLgnIhozujmEcqB+AMsvb16lKEASU20Oo8MhwFRfgtc3/RNPrr0z7vms8wzjFMbur5pjThX2rz0DL+o+jK6sIO1qH0Dea/lfi7+dx2PCZ1VX49IJKLMnNNrscokkx0CktvdIUmLQTXJ5dgK/Pjz17exGLZdYStnhoFG0v/RSJzLQrE+O4K3fmfd1lyYauJSeieeV6vF66FFt7g4jGrfn/+cOLSlBZ6sGZ5UVYX8o9zym1cVIcpZ19vaFjwtwmCvCocezf2403e2c3QS6djfc3JRTmANCr2NAj21AuTf/IYjy3EN0LVmJ/5RL8xV2LbtkGxAB0WnOP+cUlXpy6pBi+eAzL87IZ5pQWGOiUVnpGY3jhwHshYpcEOCIRvLG9DaFQ+s6cTpYoCii0xVEQ6EZu1I8DQ/swMIP3DynSMYEecXvhq6hBX8lcHMguxyv2UrS639dz3ZoX4wCA8lwXzlpejlHE4YvHMNeThQvnVphdFlFCGOiUNsaiCp7c40NcUWETBTijEbyxJXOCXJIEFBbYIGWHEM3qR8TZDcXdgXHbIMaFIDoBDLwcAzoTH7PxtLPQXV6KgCMXDYIXb8VcCEiZ1zClKt+Nf1tWilHIGFEPfcDJtdvx5fnVsAtccU7pgYFOaUFWVDy124exiIJcUcGOra0YDYTNLktXniwbcgtVRD19CLv3Q83ZjaBw5IeXo6PGXSPh0L3w6ak2O35RcTpUm+3QWnsVQOLbklvCSVX5WFWTD58cg199706FXRTx5QVVyLHzTySlD/60Ulp44cAoxsJxDDZ04812v9nl6MJuE1Felg3Z68NI1ttQvVsxIszs7oNnnghXhYhw9/Tr8qNLjjsU5hkmN8uOjywqQW6uEyPxGIblY/8ff3ZuBardWSZUR5Q8znKnlPd6yxi21g3g9ddbYbUf1/wcJ4rKcjDqGsFo1msQXW8BwuzuPIS7FTTeH4YSnfwYd0UpVn7rqxhRRzDgD6FvyAn/mHXbpTjtEtbVFmFuiQd+JQ5lip+jM8qK8NHKUgOrI9IGA51S2q4mPx56th59KdrJLRnFhW7kFnsxbLcj6KyH5HoRgq1F03OEOhW0Px5FpO/YK/XClcux+PKLYfd6jvh+TAnBHxrE8GgY4WAu2gajkNN4G9qKvCycXF2AwlwnRpQ45AT+1C3P9eKyBdXs005piYFOKSswHsMN923DyNgUl5ppojDPhfzyXAzZnQgKIgR7PaSsZyBIHbqdU1WAwAEZ4fZVEGI2OPNzUXDcUnjnVSf0fgFAjs0GxIHhQAStQ+NoGAgglIJr+wUBmF+UjcWlXpTkuhATVQTlmdVZ6nLiuiW1yJKse6eCrI2BTinrvj/tw2u7+swuI2lulw0VVfkYdTnhFw89qxbEQUjupyDYJ2/Lqi0RingpCvMWaDZilijBJYqQ4wpGgjEMBaPoGw2hcySM8Yi+W6CKgoCibAdqC7NRkZeFHLcdok1AQI4jPos/ZW5Jwg1La1HkdEx/MFGKyrwZMZQW6lr9aRvm1ZU5EAqy0SPY0X54yZMC0fUKpKznARi373c0WgTYtV3WF1JkhJRDV7+CR0SRx4WiEheW49DWqG5Jgk0VIECFLB9aoRCLyYjEFYxHZYTf6SqnqEBcVuCwvXdFnGWX4LRJsEsCnHYRdpsESRKgikBUUTAuy4c3v1MBjCA+6/+dAoAv1lYxzCntMdAp5agq8MhzDWaXMSNZThsq5+ZjwOlCr3jk2i9B9EHyPArB1mp4XXYlC+Mx43qry6qKQPyohBUBOAE4Rbg9ItyYfutRGcA4VADxQ1/oeJf/vKoyLMrxTH8gUYpjoFPKeWP/AFq606N9a3GBG9kVeegW7GgXj51KJdj3weZ5HBDM2bBkaNQPW7ZOW6VawNqifJxewrauZA0MdEopqqrizy9rO+NbD9WVOYgX5GBQtGGyTUhF1z8gZT0LwJxpKpIgYX93DxbVWGeFgJbmZbvxqepys8sg0gwDnVLKroZhtPakbgDVVOdhLM+LXmGqlmoqJPeTEJ2vGVbXRPIdpVCUAEJhn6l1pKI8hx1fqq2CxLauZCEMdEopf9veZXYJxxAEYF5NAfzZHnSL0/VGVSB5HofoeNOQ2qasJHao09l4eNjkSlKLXRRx2fxqtnUly+FPNKWMAX8Ybx4YMruMw0RRQE1NPvzZHnROeUX+LhWS5/cpEeYA0Os/tMXseCh1/p+mgs/NrcAct8vsMog0x0CnlPGvnb0p09q1Zm4eRnJz0Ckk3mREcj8N0fGGjlXNTH1vL4BDV+iyHIUkcVnWv5UV44SCXLPLINIFA51SxrZ9/WaXgMoyL2IleehO6Ir8PTgZ3IoAABTqSURBVKLzVYjOV3WqauaybG4MjQ0CODTRcGSsGwW5NeYWZbLluV6cU1lidhlEumGgU0roGw6ZOhmuKD8LrjkF6BenXyN9NMFWD8n9tA5VJc9rKwYwePjrkUBXRgd6mcuJz8+bwx7tZGkMdEoJW/eac3We5bShbEExuiQHRpOY8SyII7BlPwazlqZNJh498lfbP9oO4FRzijGZ2ybhsgXVcLJHO1kcA51SwtsNxs7EFgSgtrYIvW43usRk/9CrkDy/AYTUW2Y3HDhyC9YBX71JlZhLFAR8iW1dKUMw0Ml0sbiCg+2TtWfRXnmpB3JpPjqE2f34i87XINgaNapKWx2+I9eej4eGEQwNwZOVWV3RzptThoVetnWlzMB7UGS65u4AYvFj9+3WWpZTwrzlFRgqK4Z/lmEuiMOQsv5Po8q01z547FK1weHMukr/QFE+1pUUmF0GkWEY6GS6xs5R3c9RMzcP0uJKdNm0ufUquv8CCNruYqaVHEc+4sqxz/R7BvaYUI05arPduJBtXSnD8JY7mU7PjVi8Hgfy5hWjW5r57PXJCPaDEO27NRtPay7BO+H3+4cOIBYbh93uNrgiY+WzrStlKF6hk+k6+4O6jFtbWwB5fjn6NAxzQE3pW+0AoMoT/3sVVUZ3/y6DqzHWu21dvWzrShmIgU6m6xrQdmtRr8eOOcfPQac3B3GNr9JEx9sQpNTrN/9+kSmeBHT0pkZbWr1cVFOBSrZ1pQzFQCdTBcZjCEdlzcabW5UHeX45+mc56W1iKkTX33UYV1sj4+FJXxv0NWJsfMDAaoxzZnkxVuWzrStlLgY6mWrQP3n4zITTLqFmRTl6CvIQn0H/9ZkQ7PshSD26jK2l4bGpHmGoaO5InRa1WlmR58XZFWzrSpmNgU6m8o9FZz1GabEHrqUV6JacGlQ0Ocn1sq7ja6VnxD/l6+3d2xCN6TNvwQzlWU5cwrauRAx0MlcwFJ/V+2sXFsFXXoTQDDdTmSlB6k/ZJjJHGw5OPSchLkfQ1P6KMcXozG2TcNn8ajiT7vZHZB38LSBTjYWSW8ud5bShakUlOt3Zh/q46kx0bNH9HFpw27KRyA60Te3/QiSq33JBI4iCgEtrq1DItq5EABjoZDJ5ggYo0ykv8cCxuELj5WhTkSE6U2ef86k4xMRmeMflCA40v6BzNfo6v6oMC9jWlegwBjqZKhSZ2Qz3ebUFGC4rQkiniW8TEez1gJAez5xtQuIfclq7tsAf6NSxGv18sCgfpxWzrSvR+zHQyVRKglfokiSgZlk5urw5UA3uACY60mfttigkfvtZVVW8vf+PUFX9++hrqTbbjQvY1pXoGAx0SnlejwPFyyvRbdd3FvvEZIj2vSacNzmCOrNfaf9oOxpa/6FTNdrLd9hx6Xy2dSWaCAOdUlppkQeYX4ZhXRrFTE+wtQCCNmvljaDOMNAB4EDzC4jG+nSoRluOd9q6ZtvY1pVoIgx0Sllzq/IwUlGIiIHPy48m2vebdu5kKMrMr1wVVcYbex9BXNG2Ba/WLqqpZFtXoikw0Ckl1S4qRk9+HhQTw/yQ9Hq+nOzj8IGhbgwFX4AK7drwaums8mKszM8xuwyilGb2X0uiIwiCgHnLytCZ5UEqtP6SQ5+AHPo4UqKYBMiJLEKfxMhgOxpGntSwGm0MhfeifexFs8sgSnl8GEUpwyaJqFhWji7RqPXliVHCH4Eql8HmeSytnqfP1P6WVszJ9qFl1I15OR81uxwAQDDeg4P+P6DOF4E/OoqNy6+CaPpdG6LUxN8MSgkuh4Si5RXoTbEwf5caW4Z44AaoSrHZpehGVYAylKEz+C+0Bp43uxzElHHUDT8MWY0AAP7U+gy+ufMHiCqzaxdMZFUMdDJdttsOz5IK02ayJ0qVSxEfvQFqbJHZpeimvvlQo5mOsX+iafQvAJK/hT8bKhTs9z2GsOw74vsvdm/C9dvvQDAeMqUuolTGQCdTiU4bbAvKEdB5cxXNqG7Ex74CJbLe7Ep0MRIIosZVBQDoDm7Gft9voKjJ9dufjaaRv2Ak2jTha9sHd2LD67dgODr1rnJEmYaBTqYS8rMxnnbPREXI4+dDHv8cgNT6IGITZz95z9/33tXvYHgPdg09cMyVsp56xreiZ/z1KY+pG2nA5ZtvQnco9dfPExkl3f6SEqUMJbIW8cBXATXb7FIO0+KzUVNnN4odhYe/Hot1YufgvRgO181+8GmMRJvRNPKXhI5tD3bh8s0b0Rho1bcoojTBQCeaBTU+D/HRG6HKlWaXAgAQBW2eeTuCWUd8HVfGsc/3MBpGnjg8SU1rEdmH/b7HZrQWvj88hCu23IRdPv0/bBClOgY60SypSgHigeugRFeaXQogatMIZ09jM7y2Y7cm7R3fhjcHfoyhsLb97WU1in2+hxFTZr6rXSAWxNVbb8Om/u2a1kSUbhjoRFpQHZCDX4IcOtvcMqDNBDZVAQpiRRO+FpH9qPM9ir3Dv8R4vF+T89X7/4BgrCfp90fkKDa+cSee6XxJk3qI0hEDnUgzAkrtH8Vly26GUzKn53hM0e52+O76JrhtWZO+7oscxFsDd6He/0dE5ORnnLcF/o7B8J6k3/8uWZXxnbfvxuPNT896LKJ0lNoLf4nSSH6WDbesL0eRuwo1ORW49+3vYiiszRVsoiKKduuz43EFJfFStKJ10mNUKOgL7UB/6C0UZ63CnOwPwWNLfK/ywfAetI9pe1V9T91DGIr4cO3SSyGkScteIi3wCp1IA267iJtPL0OR+9Bn5CrvPHx77V1YlL/c0DrG42PQYOXaYbvqm+CSpt+HXoWC/tBbeGvgHuwe+hkGQjuhqlNPbgvGelDv/wP0aF7zWNMT+K9d90JOdrcaojTEQCeaJYckYOO6MlTlOo74vteRi2+ceCc+NOcsQ+spztFuV7J4TEaFWjGDd6gYiTbhgP932NZ/JxpHnsJItAVHh3ZMCaLO9zBkNapZrUd7puNF3LTjToRk6/bfJ3o/QVVnsT0T0Sw9uc+Hp/YZ17REa4IAfP3UMpxQ4Z7yuJc6nsPvDj4ExYArxpHBQrzd3qHZeHa7DcVLXYjIyYevQ8pBgXMpCpxLkeuYhzrfoxiJNmtW41RWFSzHPSffAa8tdfoFEOmBgU6mSvdAv3JNMdbP8yZ07P7h3fjf3d9HMDama032yFy8tG+/pmOetGIRWtVWjUYTYHSP+PneufjJ2jtR4pp45j6RFfCWO1GSPnt8QcJhDgBLC47HHWvvRoWnSseqgFy39jvW7TrQOOG69OQYfw3RFGjD5VtuQnuwy/BzExmFgU6UhP9YlIuPLcmb8ftKsspw+8k/wqriNTpUdYhk13570XhcQU44X/NxjdQ93ocvb/466kYazC6FSBcMdKIZOnVuNi5ZVTj9gZPIsrlx3cpv4dyaCzSs6j1heVSXcXfXN6PQUaDL2EbxR0ex4fVbsW1wp9mlEGmOgU40AyvL3LhyTfGsVzcLgoBPLfwivnLc12EXHdO/YQZGYsNw2nVoMaECgl/72/lGC8bHcd22O/BSzyazSyHSFAOdKEELCp24/tRSTbYofdcHytbjtjX/gzyntle+S8sTb+4yEwdbOlDhKtNlbCPF1Thue+v7eKLtebNLIdIMA50oARVeOzaeVgaHpH3nsXk5C/HttfegNneRZmPOKcjVbKyjDbWP6za2kRRVxff3/C9+Uf+42aUQaYKBTjSNd1u6ep2SbufIc+bj1tXfwynlH9JkPHeWfjPJuwcGUeuo0W18o/2i/nH8cO+D7CpHaY+BTjQFj0PELaeXodCt/7YHdtGBK1fciM8s/BIEYXZ3AkblPo2qmtieulZkmbQBjR7+1PoMvrXzB4gq2uxWR2QGBjrRJBySgI2nlWFOrraT1qZzds0ncf2q25Flm7r73FRC8XHMLdRvRno4EkVBxFpNWl7s3oTrt38bwbg1HilQ5mGgE01AEgRcd0opFhWZcxW6smg1bj/5Ryh1Jz+5bdkcfSbGvWt3fTNKnMW6nsNo2wd3YsPrt2I4mvx2sERmYaATTeCKNUVYVZ78FbIWKjxV+M+T78KygpVJvT/brfMzYRUY7dJvcxWz1I004PLNN6E7pO9jCyKtMdCJjnLxykKsq0m8pauePPZsbDzxOziz+mMzfu9QtBMOPdajv09X3wDm2efqeg4ztAe7cPnmjWgMtJpdClHCGOhE73POolycs1i/JV/JEAURFy++Apcu+yokIfGZ9rIq4+SaGv0Ke8fbe5uQb0+t/2da6A8P4YotN2GXr87sUogSwkAnese6Gi8umkVLV72tr/x33Lz6u8hxJB6eFYVOHSs6JB5XoAzqvwrADIFYEFdvvQ2b+reZXQrRtBjoRABWlbtxxeqiWbd01duivGW4Y+1dqPbWJnT8ULwTTrv+7VqbO3tQ47DerXcAiMhRbHzjv/FM54tml0I0JQY6ZbyFhS5cd0opJA1buuqp0FWCb675PtaUnjrtsXElhtMWzjegKmBvXauGW6ymFlmV8Z2378Fvm582uxSiSTHQKaNV5jiwcZ0+LV315JRcuPr4b+C8+Z+b9tj8XGM6oEUiMUjDWYacyyz31j2E+/f/GooJe7oTTYeBThmrIMuGW9aXIduRnr8GAgScV/s5XLvyVjikyZ+VD0Q6UVVgzLanTR3dlpz1/n6PNT2BO3fdC1mVzS6F6Ajp+ZeMaJayHRJuWV+Ogqz0n8x1UskHcfuaH6LQVTLpMWsXVBpWz849jShw5Bt2PjM80/EiNu64EyE5bHYpRIcx0CnjOCQBN60rQ2VO+u/t/a4q7zzcsfYuLMpfPuHrI2onXA5j/r2yrGK8W4GQ8lMMZ2dT33Z8ddu3EIiPmV0KEQAGOmUYSRRw/amlWGDAci6j5Thy8Y0T78T6yrOOeS0qR/Dvy5cYVktX3wDmoMqw85ll13AdLt98E/rCg2aXQsRAp8xy5ZpirCwzt6WrnmyiDZcuuwaXLLkKonDkr3fc0QeHTb8tYI/2dl0j5rgqDDufWZoCbbhiy01oC3aZXQplOAY6ZYxLVhXitLnZZpdhiH+rOhcbT/wOPPb3/r3B2BjOWL7YuCJUoLGuFx7Juh+g3tU93ofLNn8ddSMNZpdCGYyBThnho0vycPYi67UnncqygpW4Y+3dqPC879a3c9CwZ+kAEAyFLb+U7V3+6Ci+8vot2Da40+xSKEMx0MnyTq/x4rPHG7NsK9WUZJXh9pN/hFXFawAA4/ExnHP8UkNraOnsQbVQbeg5zTIeD+G6bXfgxZ5XzS6FMhADnSzthAo3rlhTbPH51lPLsrnxtZXfxLk1FwAARtCK8lxj71bs3NeIKqf1n6cDQFyN45tv/QB/bnvW7FIowzDQybIWFbnwtQ+WIk06uupKFER8auEXcdWKGyFAxLrlc4wtQAXq9nYh35Fn7HlNoqgqfrDnAfy8/nH2lCPDMNDJkubkOnBTGrZ01dsHyz+EW1d/DxHVj1MM6vH+rmg0htH2KGxC+jfzSdRD9Y/jR3sfYFc5MgQDnSyn0G3DzaeXwW3nj/dEanMX4dtr78VxVcXIyXIZeu7+IT8KQsWGntNsf2p9Ft9864eIKjGzSyGL4188shSvU8KtFmnpqqc8Zz6+ftJ/4strzzX83Pub2lAtZsYkuXe91LMJ12//NoLxcbNLIQtjoJNlvNvStdxrnZauerKLDly3dgN+dv63UeA2eJLc3kZUOwx+jm+y7YM7seH1WzEc9ZtdClkUA50sQRIF3HhqGeYXWK+lq97OWnQaXr7iEXz+hI9DFAyac6ACu3e3oMSRWbff60YacPnmjegO9ZldClkQA50sYcPJxTiuLDMamOgh1+XFf/371/Dsl36GMxeeYsg5ZVlF+8Eh5Ni8hpwvVbQHu3H55o1oCLSYXQpZjKCqKldVkGme3OfDU/t8sxrj8ycU4j8WZlYXOL3t62vEg1t/j7/WvwZZ0XeGdlF+LpxVCsJyRNfzpBqv3YN71nwbqwom3iGPaKYY6GSq2Qb6J5bm4dPHZWYXOCP0jw3j97uexZ92/xXdo/26nae6ogThgkDGLe9ySg58/6Rbsa5krdmlkAUw0MlUswn09fO8Gd8FzigqVLzdfQB/b9iM5w/8C+3+Hs3PsWheFYbcmfdsWRRE3L7yOnxszplml0JpjoFOpko20E+q9OD6U9gFzixNQx3Y2v42tnfuwa6eg2jzabN16PJFNei1d2syVrq5btlluKT2An5ApaQx0MlUyQT64mIXbjm9nF3gUkggEkTjUDsaBtvQOdKL7tF+9AeH4Q+NYiQcQFSOIRgNJTTWkkVVaFaada44NV0y/wJct/TLEBjrlAR236C0UpXrwMbT2NI11XidHpxQsRQnVBi7kxsRvYfL1ihtFHtsuPn0crZ0JSKaAP8yUlrwOiXcsr4c+VmS2aUQEaUkBjqlPJdNxDfWlaEsmy1diYgmw0CnlCaJAm44tRS1bOlKRDQlBjqlLEEArl5bghWlbOlKRDQdBjqlrM+vKsQHqjxml0FElBYY6JSSzl+Wj7PYn52IKGEMdEo5H6714sIV+WaXQUSUVhjolFJWV3rw5ZMya49sIiItMNApZSwtduGrHyxhf3YioiQw0CklVOc5cONpZbAzzYmIksJAJ9OVeOxs6UpENEvcbY1M9WLjKI4vy0Ipu8AREc0KA52IiMgCeI+TiIjIAhjoREREFsBAJyIisgAGOhERkQUw0ImIiCyAgU5ERGQBDHQiIiILYKATERFZAAOdiIjIAhjoREREFsBAJyIisgAGOhERkQUw0ImIiCyAgU5ERGQBDHQiIiILYKATERFZAAOdiIjIAhjoREREFsBAJyIisgAGOhERkQUw0ImIiCyAgU5ERGQBDHQiIiILYKATERFZAAOdiIjIAhjoREREFsBAJyIisgAGOhERkQUw0ImIiCyAgU5ERGQBDHQiIiILYKATERFZAAOdiIjIAhjoREREFsBAJyIisgAGOhERkQUw0ImIiCyAgU5ERGQBDHQiIiILYKATERFZAAOdiIjIAhjoREREFsBAJyIisgAGOhERkQUw0ImIiCyAgU5ERGQBDHQiIiILYKATERFZAAOdiIjIAhjoREREFsBAJyIisgAGOhERkQUw0ImIiCyAgU5ERGQB/x+cHUk8PO0VVQAAAABJRU5ErkJggg==;" vertex="1" parent="1">
          <mxGeometry x="330" y="390" width="171.88" height="110" as="geometry" />
        </mxCell>
        <mxCell id="ADgUbHOw4i6oFv4jQCSO-2" value="Backend database" style="image;aspect=fixed;perimeter=ellipsePerimeter;html=1;align=center;shadow=0;dashed=0;spacingTop=3;image=img/lib/active_directory/databases.svg;" vertex="1" parent="1">
          <mxGeometry x="110" y="260" width="81.12" height="79.5" as="geometry" />
        </mxCell>
        <mxCell id="ADgUbHOw4i6oFv4jQCSO-3" value="" style="endArrow=classic;html=1;rounded=0;exitX=1;exitY=1;exitDx=0;exitDy=0;entryX=0;entryY=0.5;entryDx=0;entryDy=0;" edge="1" parent="1" source="ADgUbHOw4i6oFv4jQCSO-2" target="ADgUbHOw4i6oFv4jQCSO-1">
          <mxGeometry width="50" height="50" relative="1" as="geometry">
            <mxPoint x="400" y="440" as="sourcePoint" />
            <mxPoint x="450" y="390" as="targetPoint" />
          </mxGeometry>
        </mxCell>
        <mxCell id="ADgUbHOw4i6oFv4jQCSO-17" value="" style="edgeStyle=orthogonalEdgeStyle;rounded=0;orthogonalLoop=1;jettySize=auto;html=1;" edge="1" parent="1" source="ADgUbHOw4i6oFv4jQCSO-4" target="ADgUbHOw4i6oFv4jQCSO-16">
          <mxGeometry relative="1" as="geometry" />
        </mxCell>
        <mxCell id="ADgUbHOw4i6oFv4jQCSO-4" value="Ousagi database" style="image;aspect=fixed;perimeter=ellipsePerimeter;html=1;align=center;shadow=0;dashed=0;spacingTop=3;image=img/lib/active_directory/databases.svg;" vertex="1" parent="1">
          <mxGeometry x="690" y="265" width="81.12" height="79.5" as="geometry" />
        </mxCell>
        <mxCell id="ADgUbHOw4i6oFv4jQCSO-7" value="" style="edgeStyle=orthogonalEdgeStyle;rounded=0;orthogonalLoop=1;jettySize=auto;html=1;" edge="1" parent="1" source="ADgUbHOw4i6oFv4jQCSO-6" target="ADgUbHOw4i6oFv4jQCSO-4">
          <mxGeometry relative="1" as="geometry" />
        </mxCell>
        <mxCell id="ADgUbHOw4i6oFv4jQCSO-6" value="configuration by EP users" style="sketch=0;pointerEvents=1;shadow=0;dashed=0;html=1;strokeColor=none;fillColor=#505050;labelPosition=center;verticalLabelPosition=bottom;verticalAlign=top;outlineConnect=0;align=center;shape=mxgraph.office.services.excel_services;" vertex="1" parent="1">
          <mxGeometry x="700.56" y="110" width="60" height="49" as="geometry" />
        </mxCell>
        <mxCell id="ADgUbHOw4i6oFv4jQCSO-13" style="edgeStyle=orthogonalEdgeStyle;rounded=0;orthogonalLoop=1;jettySize=auto;html=1;exitX=0.5;exitY=1;exitDx=0;exitDy=0;entryX=0.5;entryY=0;entryDx=0;entryDy=0;" edge="1" parent="1" source="ADgUbHOw4i6oFv4jQCSO-12" target="ADgUbHOw4i6oFv4jQCSO-2">
          <mxGeometry relative="1" as="geometry" />
        </mxCell>
        <mxCell id="ADgUbHOw4i6oFv4jQCSO-12" value="clienst data" style="image;aspect=fixed;perimeter=ellipsePerimeter;html=1;align=center;shadow=0;dashed=0;spacingTop=3;image=img/lib/active_directory/input_output_filter.svg;" vertex="1" parent="1">
          <mxGeometry x="122" y="85.67" width="56.5" height="84.33" as="geometry" />
        </mxCell>
        <mxCell id="ADgUbHOw4i6oFv4jQCSO-14" value="&lt;b&gt;&lt;font style=&quot;font-size: 13px;&quot;&gt;Data Flow&lt;/font&gt;&lt;/b&gt;" style="shape=flexArrow;endArrow=classic;html=1;rounded=0;width=24;endSize=9.8;" edge="1" parent="1">
          <mxGeometry width="50" height="50" relative="1" as="geometry">
            <mxPoint x="320" y="250" as="sourcePoint" />
            <mxPoint x="530" y="250" as="targetPoint" />
          </mxGeometry>
        </mxCell>
        <mxCell id="ADgUbHOw4i6oFv4jQCSO-16" value="Ousagi training" style="sketch=0;points=[[0,0,0],[0.25,0,0],[0.5,0,0],[0.75,0,0],[1,0,0],[0,1,0],[0.25,1,0],[0.5,1,0],[0.75,1,0],[1,1,0],[0,0.25,0],[0,0.5,0],[0,0.75,0],[1,0.25,0],[1,0.5,0],[1,0.75,0]];outlineConnect=0;fontColor=#232F3E;gradientColor=#4AB29A;gradientDirection=north;fillColor=#116D5B;strokeColor=#ffffff;dashed=0;verticalLabelPosition=bottom;verticalAlign=top;align=center;html=1;fontSize=12;fontStyle=0;aspect=fixed;shape=mxgraph.aws4.resourceIcon;resIcon=mxgraph.aws4.neuron_ml_sdk;" vertex="1" parent="1">
          <mxGeometry x="691.56" y="450" width="78" height="78" as="geometry" />
        </mxCell>
        <mxCell id="ADgUbHOw4i6oFv4jQCSO-18" value="" style="endArrow=classic;startArrow=classic;html=1;rounded=0;exitX=1;exitY=0.5;exitDx=0;exitDy=0;entryX=0;entryY=0.5;entryDx=0;entryDy=0;" edge="1" parent="1" source="ADgUbHOw4i6oFv4jQCSO-1" target="ADgUbHOw4i6oFv4jQCSO-4">
          <mxGeometry width="50" height="50" relative="1" as="geometry">
            <mxPoint x="400" y="440" as="sourcePoint" />
            <mxPoint x="640" y="320" as="targetPoint" />
          </mxGeometry>
        </mxCell>
      </root>
    </mxGraphModel>
  </diagram>
</mxfile>
